<?xml version="1.0" encoding="UTF-8"?>
<svg xmlns="http://www.w3.org/2000/svg" xmlns:xlink="http://www.w3.org/1999/xlink" width="375pt" height="374.999991pt" viewBox="0 0 375 374.999991" version="1.2">
<defs>
<clipPath id="clip1">
  <path d="M 40.78125 3 L 333 3 L 333 369.980469 L 40.78125 369.980469 Z M 40.78125 3 "/>
</clipPath>
</defs>
<g id="surface1">
<g clip-path="url(#clip1)" clip-rule="nonzero">
<path style=" stroke:none;fill-rule:nonzero;fill:rgb(13.729858%,12.159729%,12.548828%);fill-opacity:1;" d="M 316.445312 93.910156 C 315.761719 104.335938 310.730469 114.804688 301.886719 124.171875 C 301.460938 124.625 301.003906 125.074219 300.558594 125.523438 L 231.402344 125.523438 C 229.648438 125.523438 228.226562 126.945312 228.226562 128.703125 C 228.226562 130.457031 229.648438 131.878906 231.402344 131.878906 L 293.449219 131.878906 C 293.144531 132.125 292.847656 132.375 292.535156 132.617188 C 288.882812 135.460938 284.8125 138.199219 280.4375 140.742188 C 280.265625 140.84375 280.089844 140.933594 279.921875 141.035156 L 262.777344 141.035156 C 261.023438 141.035156 259.601562 142.457031 259.601562 144.214844 C 259.601562 145.96875 261.023438 147.390625 262.777344 147.390625 L 267.359375 147.390625 C 262.207031 149.679688 256.769531 151.746094 251.078125 153.566406 C 245.152344 155.472656 238.90625 157.117188 232.507812 158.460938 C 230.132812 158.964844 227.6875 159.4375 225.3125 159.847656 L 224.847656 159.921875 C 224.671875 159.953125 224.496094 159.984375 224.316406 160.011719 C 224.25 160.019531 224.183594 160.027344 224.121094 160.042969 C 217.9375 161.082031 211.589844 161.855469 205.238281 162.355469 C 195.835938 163.109375 186.261719 163.269531 176.765625 162.839844 C 167.535156 162.433594 158.324219 161.457031 149.386719 159.9375 C 149.199219 159.894531 149.007812 159.863281 148.8125 159.832031 C 148.777344 159.828125 148.742188 159.824219 148.707031 159.816406 C 138.066406 157.964844 127.867188 155.339844 118.375 152.007812 C 109.367188 148.859375 101.007812 145.070312 93.523438 140.738281 C 85.796875 136.277344 79.113281 131.304688 73.667969 125.976562 C 72.894531 125.214844 72.164062 124.464844 71.46875 123.722656 C 62.136719 113.800781 57.074219 102.738281 56.824219 91.714844 C 56.824219 91.585938 56.824219 91.457031 56.820312 91.328125 L 56.816406 91.0625 C 56.75 78.996094 62.398438 66.980469 73.171875 56.292969 C 74.003906 55.464844 74.867188 54.648438 75.765625 53.835938 L 99.746094 53.835938 C 101.5 53.835938 102.917969 52.410156 102.917969 50.65625 C 102.917969 48.902344 101.5 47.480469 99.746094 47.480469 L 83.636719 47.480469 C 84.152344 47.105469 84.675781 46.734375 85.203125 46.367188 C 85.277344 46.316406 85.351562 46.269531 85.429688 46.21875 C 87.050781 45.09375 88.785156 43.972656 90.589844 42.863281 L 131.332031 42.863281 C 133.082031 42.863281 134.507812 41.4375 134.507812 39.683594 C 134.507812 37.925781 133.082031 36.503906 131.332031 36.503906 L 102.347656 36.503906 C 102.613281 36.378906 102.871094 36.25 103.140625 36.125 C 106.179688 34.691406 109.316406 33.359375 112.53125 32.109375 L 157.734375 32.109375 C 159.492188 32.109375 160.910156 30.6875 160.910156 28.933594 C 160.910156 27.175781 159.492188 25.753906 157.734375 25.753906 L 132.558594 25.753906 C 181.257812 13.382812 240.8125 18.929688 279.820312 41.480469 C 304.355469 55.664062 317.707031 74.769531 316.445312 93.910156 Z M 313.042969 145.269531 L 313.042969 135.476562 C 313.167969 135.34375 313.304688 135.21875 313.425781 135.085938 C 314.378906 134.078125 315.285156 133.050781 316.167969 132.015625 L 316.152344 134.277344 C 315.640625 137.972656 314.597656 141.667969 313.042969 145.269531 Z M 316.445312 170.488281 C 315.753906 180.964844 310.6875 191.46875 301.789062 200.859375 C 301.390625 201.277344 300.972656 201.691406 300.5625 202.101562 L 267.636719 202.101562 C 269.410156 201.398438 271.164062 200.675781 272.863281 199.933594 C 275.816406 198.644531 278.714844 197.265625 281.527344 195.824219 L 292.300781 195.824219 C 294.050781 195.824219 295.472656 194.402344 295.472656 192.648438 C 295.472656 191.015625 294.238281 189.683594 292.65625 189.503906 C 300.464844 184.5625 307.28125 179.089844 312.9375 173.191406 C 314.183594 171.890625 315.355469 170.5625 316.488281 169.226562 C 316.472656 169.644531 316.472656 170.066406 316.445312 170.488281 Z M 313.042969 221.847656 L 313.042969 212.058594 C 313.128906 211.972656 313.21875 211.886719 313.304688 211.800781 C 314.296875 210.746094 315.242188 209.679688 316.167969 208.597656 L 316.152344 210.855469 C 315.640625 214.550781 314.59375 218.246094 313.042969 221.847656 Z M 316.429688 247.464844 C 315.695312 258.003906 310.539062 268.554688 301.496094 277.984375 C 301.195312 278.304688 300.867188 278.617188 300.558594 278.929688 L 267 278.929688 C 268.769531 278.234375 270.523438 277.519531 272.246094 276.777344 C 275.242188 275.484375 278.175781 274.101562 281.035156 272.652344 L 292.300781 272.652344 C 294.050781 272.652344 295.472656 271.230469 295.472656 269.476562 C 295.472656 267.722656 294.050781 266.296875 292.300781 266.296875 C 301.980469 260.207031 310.097656 253.3125 316.441406 245.832031 Z M 316.152344 287.6875 C 315.640625 291.378906 314.59375 295.039062 313.042969 298.628906 L 313.042969 288.886719 C 314.132812 287.75 315.167969 286.589844 316.167969 285.417969 Z M 288.449219 326.621094 L 288.449219 314.144531 C 288.449219 312.386719 287.027344 310.964844 285.273438 310.964844 C 283.523438 310.964844 282.101562 312.386719 282.101562 314.144531 L 282.101562 330.75 C 281.550781 331.082031 281 331.414062 280.4375 331.742188 C 229.078125 361.628906 145.226562 361.625 93.527344 331.738281 C 93.253906 331.582031 92.996094 331.421875 92.730469 331.261719 L 92.730469 322.113281 C 92.730469 320.359375 91.308594 318.933594 89.554688 318.933594 C 87.800781 318.933594 86.378906 320.359375 86.378906 322.113281 L 86.378906 327.246094 C 84.886719 326.234375 83.4375 325.199219 82.046875 324.148438 L 82.046875 312.539062 C 82.046875 310.78125 80.625 309.359375 78.871094 309.359375 C 77.121094 309.359375 75.695312 310.78125 75.695312 312.539062 L 75.695312 318.875 C 74.832031 318.082031 73.984375 317.289062 73.175781 316.480469 C 72.332031 315.640625 71.53125 314.789062 70.75 313.933594 L 70.75 297.898438 C 75.257812 301.445312 80.210938 304.796875 85.585938 307.902344 C 112.882812 323.683594 148.941406 332.375 187.121094 332.375 C 225.304688 332.375 261.277344 323.679688 288.410156 307.894531 C 290.414062 306.730469 292.347656 305.519531 294.234375 304.285156 L 294.234375 314.144531 C 294.234375 315.898438 295.65625 317.320312 297.410156 317.320312 C 299.164062 317.320312 300.582031 315.898438 300.582031 314.144531 L 300.582031 299.84375 C 301.148438 299.421875 301.730469 299 302.28125 298.570312 C 303.808594 297.378906 305.269531 296.15625 306.695312 294.917969 L 306.695312 299.425781 C 306.695312 301.179688 308.117188 302.605469 309.867188 302.605469 C 310.386719 302.605469 310.867188 302.46875 311.296875 302.25 C 306.609375 311.03125 298.859375 319.320312 288.449219 326.621094 Z M 64.402344 305.75 C 60.609375 299.882812 58.175781 293.761719 57.257812 287.628906 L 57.230469 285.019531 C 58.890625 286.964844 60.660156 288.871094 62.5625 290.734375 C 63.164062 291.320312 63.78125 291.894531 64.402344 292.46875 Z M 61.976562 250.914062 C 68.496094 257.414062 76.441406 263.390625 85.589844 268.671875 C 93.53125 273.261719 102.292969 277.289062 111.617188 280.644531 C 116.691406 282.476562 122.023438 284.140625 127.449219 285.578125 C 146.394531 290.625 166.675781 293.171875 187.035156 293.171875 C 202.402344 293.171875 217.8125 291.71875 232.707031 288.804688 C 237.855469 287.796875 242.875 286.621094 247.765625 285.285156 L 293.449219 285.285156 C 293.144531 285.535156 292.847656 285.785156 292.535156 286.027344 C 288.882812 288.875 284.8125 291.605469 280.4375 294.152344 C 280.273438 294.25 280.105469 294.339844 279.9375 294.433594 L 262.777344 294.433594 C 261.023438 294.433594 259.601562 295.855469 259.601562 297.613281 C 259.601562 299.367188 261.023438 300.792969 262.777344 300.792969 L 267.417969 300.792969 C 215.761719 323.835938 141.058594 321.617188 93.523438 294.140625 C 85.796875 289.675781 79.113281 284.703125 73.65625 279.367188 C 62.976562 268.910156 57.167969 257.148438 56.839844 245.332031 C 58.4375 247.234375 60.148438 249.09375 61.976562 250.914062 Z M 64.402344 215.644531 L 64.402344 228.941406 C 62.8125 226.488281 61.453125 223.996094 60.359375 221.464844 C 58.835938 217.953125 57.789062 214.367188 57.257812 210.800781 L 57.230469 208.191406 C 58.121094 209.230469 59.03125 210.261719 59.996094 211.28125 C 60.753906 212.097656 61.566406 212.925781 62.5625 213.90625 C 63.164062 214.492188 63.78125 215.066406 64.402344 215.644531 Z M 297.410156 240.496094 C 299.164062 240.496094 300.582031 239.070312 300.582031 237.316406 L 300.582031 223.019531 C 301.148438 222.59375 301.726562 222.171875 302.277344 221.746094 C 303.804688 220.558594 305.265625 219.332031 306.695312 218.089844 L 306.695312 222.597656 C 306.695312 224.351562 308.117188 225.777344 309.867188 225.777344 C 310.390625 225.777344 310.875 225.640625 311.304688 225.417969 C 306.613281 234.226562 298.839844 242.507812 288.449219 249.792969 L 288.449219 237.316406 C 288.449219 235.558594 287.027344 234.136719 285.273438 234.136719 C 283.523438 234.136719 282.101562 235.558594 282.101562 237.316406 L 282.101562 253.914062 C 281.546875 254.246094 281.003906 254.585938 280.4375 254.910156 C 275.90625 257.546875 271.039062 259.992188 265.957031 262.179688 C 254.96875 266.9375 242.757812 270.648438 229.667969 273.207031 C 197.347656 279.53125 162.492188 278.46875 131.519531 270.214844 C 126.53125 268.894531 121.648438 267.375 117 265.691406 C 108.546875 262.652344 100.644531 259.023438 93.519531 254.90625 C 93.253906 254.75 92.996094 254.589844 92.730469 254.433594 L 92.730469 245.285156 C 92.730469 243.53125 91.308594 242.105469 89.554688 242.105469 C 87.800781 242.105469 86.378906 243.53125 86.378906 245.285156 L 86.378906 250.421875 C 84.886719 249.410156 83.4375 248.375 82.046875 247.324219 L 82.046875 235.710938 C 82.046875 233.953125 80.625 232.53125 78.871094 232.53125 C 77.121094 232.53125 75.695312 233.953125 75.695312 235.710938 L 75.695312 242.046875 C 74.832031 241.257812 73.984375 240.460938 73.175781 239.652344 C 72.332031 238.816406 71.53125 237.964844 70.75 237.109375 L 70.75 221.070312 C 75.257812 224.621094 80.210938 227.96875 85.585938 231.078125 C 94.003906 235.941406 103.332031 240.171875 113.308594 243.648438 C 123.707031 247.289062 134.875 250.144531 146.5 252.132812 C 156.066406 253.773438 165.96875 254.835938 175.941406 255.289062 C 179.664062 255.460938 183.394531 255.542969 187.128906 255.542969 C 193.578125 255.542969 200.019531 255.292969 206.378906 254.789062 C 216.253906 254.015625 226.042969 252.625 235.464844 250.65625 C 242.582031 249.171875 249.550781 247.339844 256.183594 245.207031 C 267.933594 241.433594 278.777344 236.675781 288.410156 231.066406 C 290.414062 229.898438 292.347656 228.691406 294.234375 227.457031 L 294.234375 237.316406 C 294.234375 239.070312 295.65625 240.496094 297.410156 240.496094 Z M 297.410156 163.914062 C 299.164062 163.914062 300.582031 162.488281 300.582031 160.734375 L 300.582031 146.4375 C 301.148438 146.011719 301.730469 145.589844 302.28125 145.164062 C 303.808594 143.972656 305.265625 142.75 306.695312 141.507812 L 306.695312 146.023438 C 306.695312 147.78125 308.117188 149.203125 309.867188 149.203125 C 310.390625 149.203125 310.871094 149.066406 311.304688 148.84375 C 308.855469 153.441406 305.574219 157.917969 301.488281 162.183594 C 297.761719 166.066406 293.386719 169.753906 288.449219 173.214844 L 288.449219 160.734375 C 288.449219 158.976562 287.027344 157.554688 285.273438 157.554688 C 283.523438 157.554688 282.101562 158.976562 282.101562 160.734375 L 282.101562 177.347656 C 281.894531 177.472656 281.699219 177.597656 281.492188 177.722656 C 281.253906 177.863281 281.019531 178 280.777344 178.140625 L 280.414062 178.351562 C 279.5625 178.851562 278.695312 179.335938 277.800781 179.828125 C 274.214844 181.800781 270.417969 183.664062 266.507812 185.367188 C 262.320312 187.207031 257.855469 188.917969 253.222656 190.460938 C 247.765625 192.300781 241.972656 193.921875 235.945312 195.300781 C 234.957031 195.539062 233.953125 195.757812 232.949219 195.960938 C 232.914062 195.96875 232.882812 195.976562 232.851562 195.984375 C 231.816406 196.207031 230.769531 196.417969 229.710938 196.625 C 210.601562 200.375 189.867188 201.542969 169.738281 200.011719 C 156.398438 199.003906 143.445312 196.839844 131.246094 193.578125 C 126.222656 192.226562 121.347656 190.699219 116.742188 189.027344 C 113.972656 188.023438 111.203125 186.933594 108.5 185.777344 C 104.011719 183.867188 99.660156 181.75 95.570312 179.484375 C 94.878906 179.101562 94.199219 178.71875 93.527344 178.328125 C 93.253906 178.171875 92.996094 178.011719 92.730469 177.855469 L 92.730469 168.710938 C 92.730469 166.957031 91.308594 165.53125 89.554688 165.53125 C 87.800781 165.53125 86.378906 166.957031 86.378906 168.710938 L 86.378906 173.84375 C 85.414062 173.195312 84.464844 172.53125 83.542969 171.863281 C 83.035156 171.492188 82.542969 171.109375 82.046875 170.730469 L 82.046875 159.136719 C 82.046875 157.382812 80.625 155.957031 78.871094 155.957031 C 77.121094 155.957031 75.695312 157.382812 75.695312 159.136719 L 75.695312 165.472656 C 74.835938 164.6875 73.996094 163.894531 73.195312 163.097656 C 72.886719 162.792969 72.589844 162.484375 72.265625 162.152344 C 71.742188 161.613281 71.246094 161.070312 70.75 160.527344 L 70.75 144.5 C 75.253906 148.046875 80.207031 151.394531 85.582031 154.503906 C 93.929688 159.332031 103.199219 163.535156 113.132812 167.011719 C 123.507812 170.652344 134.640625 173.511719 146.226562 175.519531 C 146.285156 175.527344 146.347656 175.539062 146.40625 175.546875 C 146.457031 175.554688 146.511719 175.566406 146.566406 175.574219 C 156.199219 177.226562 166.128906 178.28125 176.0625 178.714844 C 179.746094 178.882812 183.4375 178.96875 187.132812 178.96875 C 193.613281 178.96875 200.089844 178.710938 206.488281 178.199219 C 213.261719 177.667969 220.050781 176.835938 226.664062 175.730469 C 226.953125 175.6875 227.242188 175.636719 227.535156 175.585938 L 227.9375 175.519531 C 230.585938 175.0625 233.230469 174.554688 235.785156 174.011719 C 242.703125 172.558594 249.480469 170.773438 255.914062 168.703125 C 267.769531 164.917969 278.703125 160.132812 288.410156 154.484375 C 290.414062 153.320312 292.347656 152.109375 294.234375 150.875 L 294.234375 160.734375 C 294.234375 162.488281 295.65625 163.914062 297.410156 163.914062 Z M 57.230469 131.613281 C 58.085938 132.617188 58.964844 133.613281 59.886719 134.59375 C 60.714844 135.480469 61.613281 136.398438 62.5625 137.335938 C 63.164062 137.917969 63.78125 138.496094 64.402344 139.070312 L 64.402344 152.351562 C 62.792969 149.867188 61.414062 147.34375 60.308594 144.78125 C 58.808594 141.300781 57.78125 137.75 57.257812 134.222656 Z M 60.878906 173.222656 C 60.882812 173.226562 60.9375 173.285156 60.941406 173.289062 C 61.277344 173.632812 61.617188 173.980469 61.988281 174.351562 C 65.632812 177.972656 69.742188 181.460938 74.210938 184.71875 C 77.765625 187.296875 81.589844 189.777344 85.582031 192.089844 C 86.335938 192.527344 87.101562 192.953125 87.875 193.386719 C 92.449219 195.921875 97.300781 198.285156 102.28125 200.402344 C 105.242188 201.667969 108.296875 202.871094 111.34375 203.972656 C 116.363281 205.792969 121.671875 207.460938 127.140625 208.929688 C 140.292969 212.449219 154.226562 214.78125 168.539062 215.859375 C 174.667969 216.324219 180.851562 216.558594 187.03125 216.558594 C 202.566406 216.558594 218.101562 215.097656 232.75 212.226562 C 233.890625 212 235.035156 211.773438 236.171875 211.523438 C 237.316406 211.289062 238.46875 211.035156 239.542969 210.78125 C 242.640625 210.074219 245.695312 209.292969 248.691406 208.460938 L 293.449219 208.460938 C 293.144531 208.703125 292.847656 208.957031 292.535156 209.199219 C 288.882812 212.046875 284.8125 214.78125 280.4375 217.324219 C 280.273438 217.421875 280.101562 217.511719 279.9375 217.609375 L 262.777344 217.609375 C 261.023438 217.609375 259.601562 219.027344 259.601562 220.785156 C 259.601562 222.539062 261.023438 223.964844 262.777344 223.964844 L 267.386719 223.964844 C 262.300781 226.226562 256.9375 228.273438 251.332031 230.074219 C 245.230469 232.035156 238.800781 233.726562 232.226562 235.097656 C 223.460938 236.925781 214.34375 238.222656 205.136719 238.945312 C 195.746094 239.6875 186.160156 239.84375 176.660156 239.414062 C 167.34375 238.988281 158.097656 238 149.175781 236.46875 C 138.417969 234.628906 128.113281 231.996094 118.535156 228.644531 C 109.492188 225.488281 101.074219 221.675781 93.523438 217.3125 C 85.796875 212.847656 79.113281 207.875 73.664062 202.546875 C 72.855469 201.75 72.207031 201.089844 71.574219 200.40625 C 62.304688 190.597656 57.226562 179.664062 56.847656 168.75 C 58.125 170.261719 59.453125 171.757812 60.878906 173.222656 Z M 331.957031 212.410156 C 331.996094 212.097656 332.019531 211.78125 332.023438 211.464844 L 332.296875 171.21875 C 332.757812 163.535156 331.605469 155.882812 328.859375 148.425781 C 330.375 144.289062 331.421875 140.066406 331.957031 135.824219 C 331.996094 135.511719 332.019531 135.199219 332.023438 134.882812 L 332.296875 94.578125 C 333.789062 69.308594 317.582031 44.957031 287.757812 27.714844 C 235.53125 -2.472656 153.257812 -5.039062 96.390625 21.734375 C 92.445312 23.589844 88.59375 25.605469 84.929688 27.734375 C 81.992188 29.445312 79.199219 31.214844 76.617188 32.996094 C 76.542969 33.042969 76.46875 33.089844 76.398438 33.140625 C 71.027344 36.851562 66.179688 40.847656 61.992188 45.011719 C 48.128906 58.761719 40.851562 74.71875 40.945312 91.105469 C 40.945312 91.269531 40.945312 91.429688 40.949219 91.59375 L 40.953125 91.8125 C 40.953125 91.867188 40.953125 91.925781 40.953125 91.980469 C 40.953125 91.980469 40.953125 91.984375 40.953125 91.984375 L 41.390625 134.910156 C 41.394531 135.242188 41.414062 135.574219 41.460938 135.90625 C 42.011719 139.9375 43.03125 143.96875 44.488281 147.929688 C 42.101562 154.402344 40.902344 161.042969 40.945312 167.6875 C 40.945312 167.84375 40.945312 168.007812 40.949219 168.167969 L 40.953125 168.386719 C 40.953125 168.441406 40.953125 168.496094 40.953125 168.554688 L 41.390625 211.488281 C 41.394531 211.828125 41.414062 212.164062 41.460938 212.496094 C 42.023438 216.566406 43.058594 220.636719 44.535156 224.628906 C 42.117188 231.152344 40.902344 237.84375 40.945312 244.5625 C 40.945312 244.570312 40.945312 244.578125 40.945312 244.585938 C 40.945312 244.59375 40.945312 244.597656 40.945312 244.601562 L 41.390625 288.316406 C 41.394531 288.652344 41.414062 288.988281 41.460938 289.324219 C 43.339844 302.957031 50.4375 316.246094 61.976562 327.742188 C 68.476562 334.222656 76.417969 340.199219 85.585938 345.5 C 112.882812 361.28125 148.941406 369.972656 187.121094 369.96875 C 225.304688 369.96875 261.277344 361.269531 288.414062 345.484375 C 313.777344 330.722656 329.242188 310.746094 331.957031 289.234375 C 331.996094 288.917969 332.019531 288.605469 332.023438 288.292969 L 332.296875 248.011719 C 332.757812 240.292969 331.585938 232.613281 328.8125 225.132812 C 330.355469 220.960938 331.414062 216.695312 331.957031 212.410156 "/>
</g>
<path style=" stroke:none;fill-rule:nonzero;fill:rgb(13.729858%,12.159729%,12.548828%);fill-opacity:1;" d="M 193.925781 300.792969 L 252.695312 300.792969 C 254.449219 300.792969 255.871094 299.367188 255.871094 297.613281 C 255.871094 295.855469 254.449219 294.433594 252.695312 294.433594 L 193.925781 294.433594 C 192.171875 294.433594 190.753906 295.855469 190.753906 297.613281 C 190.753906 299.367188 192.171875 300.792969 193.925781 300.792969 "/>
<path style=" stroke:none;fill-rule:nonzero;fill:rgb(13.729858%,12.159729%,12.548828%);fill-opacity:1;" d="M 193.925781 223.964844 L 252.695312 223.964844 C 254.449219 223.964844 255.871094 222.539062 255.871094 220.785156 C 255.871094 219.027344 254.449219 217.609375 252.695312 217.609375 L 193.925781 217.609375 C 192.171875 217.609375 190.753906 219.027344 190.753906 220.785156 C 190.753906 222.539062 192.171875 223.964844 193.925781 223.964844 "/>
<path style=" stroke:none;fill-rule:nonzero;fill:rgb(13.729858%,12.159729%,12.548828%);fill-opacity:1;" d="M 171.363281 32.109375 L 193.925781 32.109375 C 195.679688 32.109375 197.101562 30.6875 197.101562 28.933594 C 197.101562 27.175781 195.679688 25.753906 193.925781 25.753906 L 171.363281 25.753906 C 169.609375 25.753906 168.191406 27.175781 168.191406 28.933594 C 168.191406 30.6875 169.609375 32.109375 171.363281 32.109375 "/>
<path style=" stroke:none;fill-rule:nonzero;fill:rgb(13.729858%,12.159729%,12.548828%);fill-opacity:1;" d="M 142.832031 42.863281 L 153.046875 42.863281 C 154.800781 42.863281 156.21875 41.4375 156.21875 39.683594 C 156.21875 37.925781 154.800781 36.503906 153.046875 36.503906 L 142.832031 36.503906 C 141.078125 36.503906 139.65625 37.925781 139.65625 39.683594 C 139.65625 41.4375 141.078125 42.863281 142.832031 42.863281 "/>
<path style=" stroke:none;fill-rule:nonzero;fill:rgb(13.729858%,12.159729%,12.548828%);fill-opacity:1;" d="M 190.753906 144.214844 C 190.753906 145.96875 192.171875 147.390625 193.925781 147.390625 L 252.695312 147.390625 C 254.449219 147.390625 255.871094 145.96875 255.871094 144.214844 C 255.871094 142.457031 254.449219 141.035156 252.695312 141.035156 L 193.925781 141.035156 C 192.171875 141.035156 190.753906 142.457031 190.753906 144.214844 "/>
<path style=" stroke:none;fill-rule:nonzero;fill:rgb(13.729858%,12.159729%,12.548828%);fill-opacity:1;" d="M 292.300781 112.894531 L 255.679688 112.894531 C 253.925781 112.894531 252.503906 114.316406 252.503906 116.074219 C 252.503906 117.828125 253.925781 119.253906 255.679688 119.253906 L 292.300781 119.253906 C 294.050781 119.253906 295.472656 117.828125 295.472656 116.074219 C 295.472656 114.316406 294.050781 112.894531 292.300781 112.894531 "/>
<path style=" stroke:none;fill-rule:nonzero;fill:rgb(13.729858%,12.159729%,12.548828%);fill-opacity:1;" d="M 255.761719 73.765625 C 255.40625 67.457031 250.09375 61.332031 239.828125 55.398438 C 230.195312 49.828125 219.738281 47.007812 208.445312 46.929688 C 197.15625 46.847656 186.625 49.644531 176.886719 55.3125 L 164.675781 62.980469 L 154.03125 56.828125 L 136.175781 67.21875 L 147.515625 73.769531 L 142.765625 76.769531 C 138.996094 78.960938 134.867188 80.738281 130.363281 82.109375 C 125.863281 83.46875 122.25 83.6875 119.535156 82.75 L 118.851562 82.355469 L 101.007812 92.738281 L 170.503906 132.910156 L 188.347656 122.53125 L 140.539062 94.890625 C 146.015625 95.128906 151.105469 94.796875 155.816406 93.898438 C 160.519531 93.003906 164.554688 91.578125 167.90625 89.628906 L 171.207031 87.464844 L 192.765625 99.929688 L 210.617188 89.539062 L 188.160156 76.558594 L 200.238281 68.8125 C 204.535156 66.3125 208.570312 64.792969 212.332031 64.261719 C 216.085938 63.730469 219.289062 64.222656 221.914062 65.738281 C 224.535156 67.253906 225.796875 69.050781 225.695312 71.113281 C 225.589844 73.179688 223.59375 75.335938 219.703125 77.601562 L 242.503906 90.78125 L 243.050781 90.625 C 251.882812 85.695312 256.121094 80.078125 255.761719 73.765625 "/>
</g>
</svg>
