<?xml version="1.0" encoding="UTF-8"?>
<svg xmlns="http://www.w3.org/2000/svg" xmlns:xlink="http://www.w3.org/1999/xlink" width="375pt" height="374.999991pt" viewBox="0 0 375 374.999991" version="1.2">
<defs>
<clipPath id="clip1">
  <path d="M 163 257.351562 L 206 257.351562 L 206 284.347656 L 163 284.347656 Z M 163 257.351562 "/>
</clipPath>
<clipPath id="clip2">
  <path d="M 264 91 L 333.84375 91 L 333.84375 208 L 264 208 Z M 264 91 "/>
</clipPath>
</defs>
<g id="surface1">
<path style=" stroke:none;fill-rule:nonzero;fill:rgb(6.269836%,5.879211%,5.099487%);fill-opacity:1;" d="M 259.308594 235.738281 C 258.742188 235.738281 258.171875 235.609375 257.683594 235.351562 L 234.980469 223.457031 C 233.25 222.523438 232.554688 220.375 233.457031 218.636719 C 234.386719 216.875 236.53125 216.203125 238.289062 217.109375 L 260.988281 229.003906 C 262.71875 229.9375 263.363281 232.113281 262.460938 233.847656 C 261.839844 235.015625 260.628906 235.738281 259.308594 235.738281 "/>
<path style=" stroke:none;fill-rule:nonzero;fill:rgb(6.269836%,5.879211%,5.099487%);fill-opacity:1;" d="M 271.730469 240.480469 C 269.40625 240.457031 267.109375 240.015625 264.964844 239.109375 L 264.683594 239.109375 L 262.925781 238.175781 L 257.707031 235.480469 C 255.953125 234.574219 255.253906 232.421875 256.132812 230.660156 C 257.039062 228.898438 259.179688 228.199219 260.9375 229.105469 C 260.9375 229.105469 260.9375 229.105469 260.960938 229.105469 L 266.230469 231.851562 L 267.832031 232.683594 C 273.152344 234.808594 279.222656 232.371094 281.597656 227.109375 C 283.894531 221.773438 281.546875 215.582031 276.25 213.171875 L 228.785156 186.636719 C 226.976562 185.859375 226.148438 183.761719 226.925781 181.945312 C 227.699219 180.132812 229.789062 179.277344 231.597656 180.082031 C 231.832031 180.160156 232.0625 180.289062 232.246094 180.441406 L 279.53125 206.769531 C 288.054688 210.941406 291.851562 221.101562 288.132812 229.859375 C 285.265625 236.335938 278.808594 240.507812 271.730469 240.480469 "/>
<path style=" stroke:none;fill-rule:nonzero;fill:rgb(6.269836%,5.879211%,5.099487%);fill-opacity:1;" d="M 246.550781 256.03125 C 243.738281 256.03125 240.972656 255.355469 238.496094 254.058594 L 214.761719 241.699219 C 213.003906 240.792969 212.332031 238.617188 213.238281 236.878906 C 214.167969 235.117188 216.308594 234.445312 218.039062 235.351562 L 241.773438 247.710938 C 246.140625 250.042969 251.5625 248.773438 254.453125 244.730469 C 256.648438 241.3125 257.21875 237.0625 255.925781 233.175781 L 255.773438 232.734375 L 255.773438 232.164062 C 255.746094 230.195312 257.296875 228.5625 259.285156 228.535156 C 260.960938 228.484375 262.433594 229.652344 262.824219 231.308594 C 264.628906 237.113281 263.804688 243.410156 260.523438 248.539062 L 260.34375 248.824219 C 257.242188 253.414062 252.054688 256.105469 246.550781 256.03125 "/>
<path style=" stroke:none;fill-rule:nonzero;fill:rgb(6.269836%,5.879211%,5.099487%);fill-opacity:1;" d="M 219.589844 271.992188 C 216.980469 271.992188 214.398438 271.371094 212.101562 270.152344 L 199.753906 263.777344 L 191.207031 259.320312 L 188.417969 257.816406 C 186.660156 256.910156 185.992188 254.757812 186.894531 252.996094 C 187.824219 251.261719 189.96875 250.585938 191.699219 251.496094 L 194.460938 252.917969 L 203.007812 257.375 L 215.378906 263.777344 C 219.046875 265.773438 223.617188 264.867188 226.277344 261.625 L 226.433594 261.394531 C 228.914062 257.738281 229.765625 253.203125 228.785156 248.902344 C 228.421875 246.960938 229.6875 245.09375 231.625 244.707031 C 233.5625 244.34375 235.421875 245.613281 235.78125 247.554688 C 237.203125 253.929688 235.859375 260.617188 232.0625 265.929688 L 231.804688 266.210938 C 228.835938 269.917969 224.316406 272.042969 219.589844 271.992188 "/>
<path style=" stroke:none;fill-rule:nonzero;fill:rgb(6.269836%,5.879211%,5.099487%);fill-opacity:1;" d="M 151.976562 138.363281 L 107.222656 134.398438 L 93.558594 129.679688 L 95.910156 122.96875 L 109.105469 127.503906 L 152.570312 131.234375 L 151.976562 138.363281 "/>
<path style=" stroke:none;fill-rule:nonzero;fill:rgb(6.269836%,5.879211%,5.099487%);fill-opacity:1;" d="M 279.171875 210.890625 L 272.300781 208.921875 L 276.714844 193.453125 L 291.050781 184.667969 L 294.792969 190.730469 L 282.8125 198.117188 L 279.171875 210.890625 "/>
<path style=" stroke:none;fill-rule:nonzero;fill:rgb(6.269836%,5.879211%,5.099487%);fill-opacity:1;" d="M 237.511719 187.078125 C 234.957031 187.078125 232.425781 186.792969 229.921875 186.246094 C 224.394531 184.925781 219.253906 182.359375 214.863281 178.785156 C 207.246094 173.265625 201.640625 165.335938 198.980469 156.265625 L 178.5 156.265625 C 173.257812 163.753906 165.175781 168.730469 156.136719 170.027344 C 147.019531 171.167969 137.824219 168.472656 130.75 162.589844 C 129.277344 161.347656 129.042969 159.144531 130.230469 157.640625 L 157.117188 123.617188 C 158.203125 122.246094 159.726562 121.285156 161.457031 120.898438 L 195.339844 113.769531 C 200.945312 111.699219 207.117188 111.800781 212.617188 114.082031 L 253.679688 131.675781 L 267.652344 127.582031 C 269.5625 127.089844 271.5 128.230469 271.992188 130.148438 C 272.457031 131.960938 271.421875 133.828125 269.667969 134.421875 L 254.480469 138.777344 C 253.707031 139.035156 252.855469 139.035156 252.078125 138.777344 L 209.878906 120.664062 C 205.953125 119.109375 201.539062 119.109375 197.613281 120.664062 L 197.070312 120.820312 L 162.929688 127.816406 L 138.136719 159.066406 C 143.171875 162.304688 149.214844 163.679688 155.152344 162.925781 C 162.722656 161.785156 169.410156 157.382812 173.464844 150.878906 C 174.085938 149.816406 175.195312 149.167969 176.433594 149.117188 L 201.667969 149.117188 C 203.421875 149.140625 204.867188 150.386719 205.179688 152.09375 L 205.179688 152.871094 C 207.191406 161.0625 212.074219 168.238281 218.890625 173.109375 C 222.480469 176.089844 226.691406 178.214844 231.1875 179.304688 C 233.378906 179.796875 235.628906 180.003906 237.847656 179.949219 C 239.835938 179.949219 241.4375 181.558594 241.4375 183.527344 C 241.4375 185.496094 239.835938 187.101562 237.847656 187.101562 L 237.511719 187.101562 L 237.511719 187.078125 "/>
<path style=" stroke:none;fill-rule:nonzero;fill:rgb(6.269836%,5.879211%,5.099487%);fill-opacity:1;" d="M 78.117188 196.976562 L 80.386719 190.210938 L 92.734375 194.410156 L 90.433594 201.171875 L 78.117188 196.976562 "/>
<path style=" stroke:none;fill-rule:nonzero;fill:rgb(6.269836%,5.879211%,5.099487%);fill-opacity:1;" d="M 93.25 216.433594 C 96.167969 218.976562 100.585938 218.765625 103.269531 215.941406 L 108.617188 209.699219 C 111.019531 206.613281 110.5 202.183594 107.453125 199.722656 L 107.039062 199.359375 C 104.121094 196.847656 99.707031 197.078125 97.070312 199.902344 L 91.726562 206.175781 C 89.351562 209.257812 89.890625 213.6875 92.914062 216.125 Z M 98.183594 225.347656 C 94.746094 225.402344 91.414062 224.261719 88.730469 222.109375 L 88.472656 221.878906 C 82.402344 216.875 81.5 207.9375 86.429688 201.820312 L 91.648438 195.316406 C 96.863281 189.539062 105.699219 188.941406 111.636719 193.96875 L 111.894531 194.230469 L 112.308594 194.566406 C 118.171875 199.617188 118.945312 208.402344 114.066406 214.386719 L 108.746094 220.683594 C 106.058594 223.714844 102.210938 225.425781 98.183594 225.347656 "/>
<path style=" stroke:none;fill-rule:nonzero;fill:rgb(6.269836%,5.879211%,5.099487%);fill-opacity:1;" d="M 107.453125 238.925781 C 111.457031 242.0625 117.214844 241.492188 120.496094 237.605469 L 127.417969 229.519531 C 129.535156 227.527344 130.695312 224.753906 130.621094 221.851562 C 130.644531 219.234375 129.5625 216.746094 127.648438 214.957031 C 123.464844 211.589844 117.34375 212.132812 113.808594 216.175781 C 113.523438 216.511719 113.238281 216.875 113.007812 217.238281 L 112.773438 217.523438 L 106.085938 225.375 C 102.753906 229.289062 103.191406 235.144531 107.039062 238.511719 L 107.246094 238.695312 Z M 113.394531 248.074219 C 109.625 248.074219 105.957031 246.777344 103.011719 244.394531 L 102.496094 243.953125 L 102.238281 243.722656 C 95.574219 237.734375 94.902344 227.5 100.714844 220.710938 L 107.246094 213.171875 C 107.632812 212.625 108.023438 212.109375 108.460938 211.589844 C 114.632812 204.671875 125.171875 203.84375 132.351562 209.722656 C 135.785156 212.808594 137.800781 217.210938 137.824219 221.851562 C 137.929688 226.671875 136.015625 231.335938 132.554688 234.703125 L 126.023438 242.375 C 122.847656 246.027344 118.222656 248.101562 113.394531 248.074219 "/>
<path style=" stroke:none;fill-rule:nonzero;fill:rgb(6.269836%,5.879211%,5.099487%);fill-opacity:1;" d="M 141.3125 232.398438 C 138.832031 232.398438 136.507812 233.484375 134.933594 235.378906 L 128.707031 242.710938 C 125.6875 246.546875 126.332031 252.117188 130.128906 255.175781 L 128.0625 258.152344 L 130.515625 255.535156 C 134.183594 258.722656 139.734375 258.414062 143.066406 254.863281 L 149.292969 247.53125 C 152.289062 243.695312 151.640625 238.148438 147.871094 235.09375 L 147.664062 234.886719 C 145.882812 233.332031 143.636719 232.476562 141.3125 232.398438 Z M 136.664062 264.761719 C 132.789062 264.710938 129.042969 263.3125 126.046875 260.796875 L 125.582031 260.382812 C 118.765625 254.757812 117.730469 244.679688 123.3125 237.789062 L 129.535156 230.480469 C 135.398438 223.949219 145.367188 223.300781 152.027344 228.976562 L 152.675781 229.519531 C 159.492188 235.117188 160.5 245.222656 154.921875 252.089844 L 148.699219 259.398438 C 145.675781 262.894531 141.285156 264.867188 136.664062 264.761719 "/>
<path style=" stroke:none;fill-rule:nonzero;fill:rgb(6.269836%,5.879211%,5.099487%);fill-opacity:1;" d="M 152.933594 269.945312 L 153.164062 270.125 C 156.445312 273 161.429688 272.769531 164.398438 269.582031 L 170.160156 262.792969 C 172.84375 259.347656 172.25 254.371094 168.867188 251.625 L 168.480469 251.3125 C 165.175781 248.410156 160.214844 248.644531 157.195312 251.832031 L 151.460938 258.621094 C 148.828125 262.09375 149.421875 267.015625 152.777344 269.738281 Z M 158.667969 279.222656 C 155.023438 279.246094 151.488281 277.976562 148.671875 275.695312 L 148.207031 275.335938 L 150.558594 272.640625 L 147.921875 275.050781 C 141.648438 269.738281 140.796875 260.332031 146.011719 253.957031 L 151.953125 247.167969 C 157.476562 241.027344 166.851562 240.402344 173.128906 245.742188 L 173.285156 245.921875 L 173.4375 245.921875 C 179.945312 251.15625 181.007812 260.71875 175.789062 267.25 C 175.761719 267.300781 175.710938 267.351562 175.6875 267.378906 L 169.746094 274.167969 C 166.957031 277.40625 162.929688 279.246094 158.667969 279.222656 "/>
<g clip-path="url(#clip1)" clip-rule="nonzero">
<path style=" stroke:none;fill-rule:nonzero;fill:rgb(6.269836%,5.879211%,5.099487%);fill-opacity:1;" d="M 188.390625 284.609375 C 185.628906 284.609375 182.941406 283.9375 180.488281 282.691406 L 175.6875 280.230469 C 173.078125 278.9375 170.496094 277.613281 165.535156 275.023438 C 163.804688 274.117188 163.109375 271.964844 164.039062 270.203125 C 164.941406 268.46875 167.085938 267.769531 168.84375 268.699219 C 173.75 271.238281 176.332031 272.5625 178.914062 273.882812 L 183.796875 276.34375 C 187.902344 278.519531 192.988281 277.484375 195.960938 273.882812 C 198.335938 270.488281 199.007812 266.1875 197.742188 262.222656 C 197.171875 260.332031 198.230469 258.363281 200.117188 257.792969 C 202.003906 257.222656 203.992188 258.285156 204.558594 260.175781 C 206.46875 266.238281 205.4375 272.847656 201.769531 278.027344 C 198.59375 282.226562 193.632812 284.664062 188.390625 284.609375 "/>
</g>
<path style=" stroke:none;fill-rule:nonzero;fill:rgb(6.269836%,5.879211%,5.099487%);fill-opacity:1;" d="M 69.515625 212.9375 C 68.921875 212.9375 68.328125 212.832031 67.757812 212.652344 L 44.59375 204.621094 C 42.734375 203.972656 41.753906 201.925781 42.398438 200.058594 C 43.019531 198.191406 45.058594 197.207031 46.917969 197.855469 L 68.507812 205.320312 L 95.210938 117.582031 L 44.59375 100.269531 C 42.734375 99.648438 41.753906 97.601562 42.398438 95.734375 C 43.019531 93.871094 45.058594 92.886719 46.917969 93.535156 L 98.929688 111.386719 C 101.796875 112.398438 103.347656 115.480469 102.445312 118.382812 L 74.835938 209.023438 C 74.085938 211.355469 71.941406 212.9375 69.515625 212.9375 "/>
<g clip-path="url(#clip2)" clip-rule="nonzero">
<path style=" stroke:none;fill-rule:nonzero;fill:rgb(6.269836%,5.879211%,5.099487%);fill-opacity:1;" d="M 301.898438 207.859375 C 299.574219 207.859375 297.480469 206.433594 296.652344 204.257812 L 265.042969 121.960938 C 263.933594 119.058594 265.351562 115.816406 268.21875 114.703125 C 268.273438 114.703125 268.324219 114.679688 268.375 114.652344 L 328.085938 91.824219 C 329.867188 91.019531 331.984375 91.824219 332.785156 93.636719 C 333.585938 95.425781 332.785156 97.550781 330.976562 98.351562 C 330.847656 98.40625 330.746094 98.457031 330.589844 98.507812 L 272.25 120.898438 L 302.722656 200.265625 L 327.980469 189.847656 C 329.789062 189.046875 331.90625 189.875 332.679688 191.6875 C 333.457031 193.476562 332.65625 195.601562 330.847656 196.378906 C 330.796875 196.40625 330.746094 196.429688 330.691406 196.457031 L 303.988281 207.523438 C 303.316406 207.753906 302.59375 207.882812 301.898438 207.859375 "/>
</g>
</g>
</svg>
