<?xml version="1.0" encoding="UTF-8"?>
<svg xmlns="http://www.w3.org/2000/svg" xmlns:xlink="http://www.w3.org/1999/xlink" width="375pt" height="374.999991pt" viewBox="0 0 375 374.999991" version="1.2">
<defs>
<clipPath id="clip1">
  <path d="M 39.140625 188 L 336 188 L 336 322.679688 L 39.140625 322.679688 Z M 39.140625 188 "/>
</clipPath>
</defs>
<g id="surface1">
<g clip-path="url(#clip1)" clip-rule="nonzero">
<path style=" stroke:none;fill-rule:nonzero;fill:rgb(0%,0%,0%);fill-opacity:1;" d="M 322.183594 188.53125 C 321.300781 188.53125 320.425781 188.617188 319.5625 188.792969 C 318.695312 188.964844 317.855469 189.21875 317.039062 189.558594 C 316.226562 189.894531 315.449219 190.308594 314.714844 190.800781 C 313.984375 191.289062 313.304688 191.847656 312.679688 192.472656 C 312.054688 193.097656 311.5 193.777344 311.007812 194.511719 C 310.519531 195.246094 310.105469 196.019531 309.765625 196.835938 C 309.429688 197.652344 309.171875 198.492188 309 199.359375 C 308.828125 200.226562 308.742188 201.101562 308.742188 201.984375 L 308.742188 296.140625 L 66.820312 296.140625 L 66.820312 201.984375 C 66.820312 201.101562 66.734375 200.226562 66.5625 199.359375 C 66.390625 198.492188 66.132812 197.652344 65.796875 196.835938 C 65.457031 196.019531 65.042969 195.246094 64.554688 194.511719 C 64.0625 193.777344 63.507812 193.097656 62.882812 192.472656 C 62.257812 191.847656 61.578125 191.289062 60.847656 190.800781 C 60.113281 190.308594 59.339844 189.894531 58.523438 189.558594 C 57.707031 189.21875 56.867188 188.964844 56 188.792969 C 55.136719 188.617188 54.261719 188.53125 53.378906 188.53125 C 52.496094 188.53125 51.621094 188.617188 50.757812 188.792969 C 49.890625 188.964844 49.050781 189.21875 48.234375 189.558594 C 47.421875 189.894531 46.644531 190.308594 45.914062 190.800781 C 45.179688 191.289062 44.5 191.847656 43.875 192.472656 C 43.25 193.097656 42.695312 193.777344 42.203125 194.511719 C 41.714844 195.246094 41.300781 196.019531 40.960938 196.835938 C 40.625 197.652344 40.371094 198.492188 40.199219 199.359375 C 40.023438 200.226562 39.9375 201.101562 39.9375 201.984375 L 39.9375 309.589844 C 39.9375 310.472656 40.023438 311.347656 40.199219 312.214844 C 40.371094 313.082031 40.625 313.921875 40.960938 314.738281 C 41.300781 315.554688 41.714844 316.328125 42.203125 317.0625 C 42.695312 317.796875 43.25 318.476562 43.875 319.101562 C 44.5 319.726562 45.179688 320.285156 45.914062 320.773438 C 46.644531 321.265625 47.421875 321.679688 48.234375 322.019531 C 49.050781 322.355469 49.890625 322.613281 50.757812 322.785156 C 51.621094 322.957031 52.496094 323.042969 53.378906 323.042969 L 322.183594 323.042969 C 323.066406 323.042969 323.941406 322.957031 324.804688 322.785156 C 325.671875 322.613281 326.511719 322.355469 327.328125 322.019531 C 328.140625 321.679688 328.917969 321.265625 329.648438 320.773438 C 330.382812 320.285156 331.0625 319.726562 331.6875 319.101562 C 332.3125 318.476562 332.867188 317.796875 333.359375 317.0625 C 333.847656 316.328125 334.261719 315.554688 334.601562 314.738281 C 334.9375 313.921875 335.191406 313.082031 335.367188 312.214844 C 335.539062 311.347656 335.625 310.472656 335.625 309.589844 L 335.625 201.984375 C 335.625 201.101562 335.539062 200.226562 335.367188 199.359375 C 335.191406 198.492188 334.9375 197.652344 334.601562 196.835938 C 334.261719 196.019531 333.847656 195.246094 333.359375 194.511719 C 332.867188 193.777344 332.3125 193.097656 331.6875 192.472656 C 331.0625 191.847656 330.382812 191.289062 329.648438 190.800781 C 328.917969 190.308594 328.140625 189.894531 327.328125 189.558594 C 326.511719 189.21875 325.671875 188.964844 324.804688 188.792969 C 323.941406 188.617188 323.066406 188.53125 322.183594 188.53125 Z M 322.183594 188.53125 "/>
</g>
<path style=" stroke:none;fill-rule:nonzero;fill:rgb(0%,0%,0%);fill-opacity:1;" d="M 187.78125 269.238281 C 188.664062 269.238281 189.539062 269.152344 190.402344 268.980469 C 191.269531 268.808594 192.109375 268.550781 192.925781 268.214844 C 193.738281 267.875 194.515625 267.460938 195.25 266.972656 C 195.980469 266.480469 196.660156 265.921875 197.285156 265.296875 C 197.910156 264.675781 198.464844 263.996094 198.957031 263.261719 C 199.445312 262.527344 199.859375 261.75 200.199219 260.933594 C 200.535156 260.117188 200.792969 259.277344 200.964844 258.410156 C 201.136719 257.546875 201.222656 256.671875 201.222656 255.789062 L 201.222656 99.945312 L 232.039062 130.789062 C 232.667969 131.394531 233.347656 131.933594 234.082031 132.410156 C 234.8125 132.882812 235.585938 133.28125 236.394531 133.605469 C 237.207031 133.929688 238.039062 134.171875 238.898438 134.332031 C 239.757812 134.496094 240.621094 134.570312 241.492188 134.5625 C 242.367188 134.554688 243.230469 134.464844 244.085938 134.289062 C 244.941406 134.113281 245.769531 133.855469 246.574219 133.515625 C 247.378906 133.179688 248.144531 132.769531 248.867188 132.28125 C 249.59375 131.792969 250.265625 131.242188 250.878906 130.625 C 251.496094 130.007812 252.050781 129.335938 252.535156 128.609375 C 253.023438 127.886719 253.433594 127.121094 253.773438 126.3125 C 254.109375 125.507812 254.367188 124.679688 254.542969 123.824219 C 254.71875 122.96875 254.808594 122.101562 254.816406 121.230469 C 254.824219 120.355469 254.746094 119.492188 254.585938 118.632812 C 254.425781 117.773438 254.183594 116.9375 253.859375 116.128906 C 253.535156 115.316406 253.136719 114.542969 252.664062 113.8125 C 252.191406 113.078125 251.652344 112.398438 251.042969 111.769531 L 197.285156 57.964844 C 196.660156 57.339844 195.980469 56.78125 195.246094 56.292969 C 194.511719 55.800781 193.738281 55.386719 192.921875 55.050781 C 192.109375 54.710938 191.269531 54.457031 190.402344 54.285156 C 189.539062 54.113281 188.664062 54.027344 187.78125 54.027344 C 186.898438 54.027344 186.023438 54.113281 185.160156 54.285156 C 184.292969 54.457031 183.453125 54.710938 182.640625 55.050781 C 181.824219 55.386719 181.050781 55.800781 180.316406 56.292969 C 179.582031 56.78125 178.902344 57.339844 178.277344 57.964844 L 124.519531 111.769531 C 123.875 112.390625 123.300781 113.066406 122.796875 113.800781 C 122.289062 114.535156 121.859375 115.3125 121.507812 116.132812 C 121.152344 116.953125 120.886719 117.800781 120.703125 118.675781 C 120.519531 119.550781 120.421875 120.433594 120.414062 121.328125 C 120.40625 122.21875 120.488281 123.105469 120.65625 123.980469 C 120.824219 124.859375 121.078125 125.710938 121.414062 126.535156 C 121.753906 127.363281 122.167969 128.148438 122.664062 128.890625 C 123.15625 129.636719 123.71875 130.324219 124.351562 130.953125 C 124.984375 131.585938 125.667969 132.148438 126.414062 132.644531 C 127.15625 133.136719 127.941406 133.554688 128.765625 133.894531 C 129.589844 134.230469 130.441406 134.484375 131.320312 134.652344 C 132.195312 134.820312 133.078125 134.902344 133.972656 134.894531 C 134.863281 134.886719 135.746094 134.789062 136.621094 134.605469 C 137.492188 134.421875 138.339844 134.15625 139.160156 133.800781 C 139.980469 133.449219 140.757812 133.019531 141.492188 132.511719 C 142.226562 132.003906 142.902344 131.429688 143.523438 130.789062 L 174.339844 99.945312 L 174.339844 255.789062 C 174.339844 256.671875 174.425781 257.546875 174.597656 258.410156 C 174.773438 259.277344 175.027344 260.117188 175.363281 260.933594 C 175.703125 261.75 176.117188 262.527344 176.605469 263.261719 C 177.097656 263.996094 177.652344 264.675781 178.277344 265.296875 C 178.902344 265.921875 179.582031 266.480469 180.3125 266.972656 C 181.046875 267.460938 181.824219 267.875 182.636719 268.214844 C 183.453125 268.550781 184.292969 268.808594 185.160156 268.980469 C 186.023438 269.152344 186.898438 269.238281 187.78125 269.238281 Z M 187.78125 269.238281 "/>
</g>
</svg>
