<?xml version="1.0" encoding="utf-8"?>
<svg viewBox="142.99 198.403 95.617 96" xmlns="http://www.w3.org/2000/svg">
  <defs>
    <clipPath id="clip2">
      <path d="M 5.8125 143.125 L 102 143.125 L 102 239.125 L 5.8125 239.125 Z M 5.8125 143.125 "/>
    </clipPath>
  </defs>
  <g clip-path="url(#clip2)" clip-rule="nonzero" transform="matrix(1, 0, 0, 1, 137.169662, 55.277882)">
    <path style=" stroke:none;fill-rule:nonzero;fill:rgb(60.389709%,65.489197%,69.40918%);fill-opacity:1;" d="M 101.4375 191.125 C 101.4375 192.699219 101.363281 194.265625 101.207031 195.832031 C 101.054688 197.394531 100.824219 198.949219 100.519531 200.492188 C 100.214844 202.03125 99.835938 203.554688 99.378906 205.058594 C 98.925781 206.566406 98.398438 208.042969 97.800781 209.496094 C 97.199219 210.949219 96.53125 212.367188 95.792969 213.753906 C 95.054688 215.140625 94.25 216.488281 93.382812 217.792969 C 92.511719 219.101562 91.582031 220.363281 90.585938 221.578125 C 89.59375 222.792969 88.542969 223.957031 87.4375 225.066406 C 86.328125 226.179688 85.171875 227.234375 83.960938 228.230469 C 82.75 229.230469 81.492188 230.164062 80.191406 231.039062 C 78.890625 231.910156 77.546875 232.71875 76.167969 233.457031 C 74.785156 234.199219 73.371094 234.871094 71.925781 235.472656 C 70.480469 236.074219 69.007812 236.605469 67.507812 237.058594 C 66.007812 237.515625 64.492188 237.898438 62.957031 238.203125 C 61.421875 238.511719 59.875 238.742188 58.316406 238.894531 C 56.757812 239.050781 55.195312 239.125 53.628906 239.125 C 52.0625 239.125 50.5 239.050781 48.945312 238.894531 C 47.386719 238.742188 45.839844 238.511719 44.300781 238.203125 C 42.765625 237.898438 41.25 237.515625 39.75 237.058594 C 38.253906 236.605469 36.78125 236.074219 35.332031 235.472656 C 33.886719 234.871094 32.472656 234.199219 31.09375 233.457031 C 29.710938 232.71875 28.371094 231.910156 27.066406 231.039062 C 25.765625 230.164062 24.511719 229.230469 23.300781 228.230469 C 22.089844 227.234375 20.929688 226.179688 19.824219 225.066406 C 18.714844 223.957031 17.664062 222.792969 16.671875 221.578125 C 15.679688 220.363281 14.746094 219.101562 13.878906 217.792969 C 13.007812 216.488281 12.203125 215.140625 11.464844 213.753906 C 10.726562 212.367188 10.058594 210.949219 9.460938 209.496094 C 8.859375 208.042969 8.332031 206.566406 7.878906 205.058594 C 7.425781 203.554688 7.042969 202.03125 6.738281 200.492188 C 6.433594 198.949219 6.203125 197.394531 6.050781 195.832031 C 5.898438 194.265625 5.820312 192.699219 5.820312 191.125 C 5.820312 189.554688 5.898438 187.988281 6.050781 186.421875 C 6.203125 184.859375 6.433594 183.304688 6.738281 181.761719 C 7.042969 180.21875 7.425781 178.699219 7.878906 177.191406 C 8.332031 175.6875 8.859375 174.210938 9.460938 172.757812 C 10.058594 171.304688 10.726562 169.886719 11.464844 168.5 C 12.203125 167.113281 13.007812 165.765625 13.878906 164.460938 C 14.746094 163.152344 15.679688 161.890625 16.671875 160.675781 C 17.664062 159.460938 18.714844 158.296875 19.824219 157.1875 C 20.929688 156.074219 22.089844 155.019531 23.300781 154.023438 C 24.511719 153.023438 25.765625 152.089844 27.066406 151.214844 C 28.371094 150.34375 29.710938 149.535156 31.09375 148.792969 C 32.472656 148.054688 33.886719 147.382812 35.332031 146.78125 C 36.78125 146.179688 38.253906 145.648438 39.75 145.195312 C 41.25 144.738281 42.765625 144.355469 44.300781 144.050781 C 45.839844 143.742188 47.386719 143.511719 48.945312 143.359375 C 50.5 143.203125 52.0625 143.128906 53.628906 143.125 C 55.195312 143.128906 56.757812 143.203125 58.316406 143.359375 C 59.875 143.511719 61.421875 143.742188 62.957031 144.050781 C 64.492188 144.355469 66.007812 144.738281 67.507812 145.195312 C 69.007812 145.648438 70.480469 146.179688 71.925781 146.78125 C 73.371094 147.382812 74.785156 148.054688 76.167969 148.792969 C 77.546875 149.535156 78.890625 150.34375 80.191406 151.214844 C 81.492188 152.089844 82.75 153.023438 83.960938 154.023438 C 85.171875 155.019531 86.328125 156.074219 87.4375 157.1875 C 88.542969 158.296875 89.59375 159.460938 90.585938 160.675781 C 91.582031 161.890625 92.511719 163.152344 93.382812 164.460938 C 94.25 165.765625 95.054688 167.113281 95.792969 168.5 C 96.53125 169.886719 97.199219 171.304688 97.800781 172.757812 C 98.398438 174.210938 98.925781 175.6875 99.378906 177.191406 C 99.835938 178.699219 100.214844 180.21875 100.519531 181.761719 C 100.824219 183.304688 101.054688 184.859375 101.207031 186.421875 C 101.363281 187.988281 101.4375 189.554688 101.4375 191.125 Z M 101.4375 191.125 "/>
  </g>
  <path style=" stroke:none;fill-rule:nonzero;fill:rgb(85.099792%,85.099792%,85.099792%);fill-opacity:1;" d="M 53.628906 151.125 C 31.71875 151.125 13.789062 169.125 13.789062 191.125 C 13.789062 195.925781 14.585938 200.328125 16.179688 204.328125 L 53.628906 191.125 L 71.558594 155.527344 C 65.980469 152.726562 60.003906 151.125 53.628906 151.125 Z M 53.628906 231.125 C 75.542969 231.125 93.472656 213.125 93.472656 191.125 C 93.472656 186.328125 92.675781 181.925781 91.082031 177.925781 L 53.628906 191.125 L 35.699219 226.726562 C 41.277344 229.527344 47.253906 231.125 53.628906 231.125 Z M 53.628906 231.125 " transform="matrix(1, 0, 0, 1, 137.169662, 55.277882)"/>
</svg>