<?xml version="1.0" encoding="utf-8"?>
<svg viewBox="0 0 1280 520" xmlns="http://www.w3.org/2000/svg">
  <g transform="matrix(0.1, 0, 0, -0.1, 0, 520)" fill="#000000" stroke="none">
    <path d="M2065 4609 c-1105 -297 -2011 -542 -2013 -544 -3 -3 117 -475 144 -567 4 -15 13 -13 68 18 359 197 863 189 1228 -20 43 -24 78 -41 78 -36 0 4 -14 40 -30 80 -17 40 -30 77 -30 81 0 5 178 9 395 9 l394 0 12 -42 c6 -24 71 -257 144 -518 74 -261 140 -500 148 -530 l14 -55 16 55 c79 280 301 1050 308 1068 l9 22 390 0 c317 0 390 -2 390 -13 0 -8 -11 -47 -25 -87 -14 -40 -25 -77 -25 -81 0 -4 36 15 80 41 164 99 348 148 583 157 86 3 157 9 156 12 0 3 -89 339 -197 746 -143 535 -202 740 -212 742 -8 1 -919 -241 -2025 -538z" style="fill: rgb(32, 32, 32);"/>
    <path d="M6118 3240 c-232 -42 -409 -218 -480 -478 -30 -110 -30 -323 1 -437 63 -236 212 -396 422 -452 102 -27 262 -22 374 11 155 47 293 134 328 209 20 40 8 101 -23 117 -38 20 -71 10 -165 -54 -58 -40 -118 -72 -158 -85 -296 -91 -559 54 -584 323 l-6 65 454 3 c250 2 462 7 472 12 47 23 59 112 33 249 -47 245 -193 429 -395 497 -72 24 -201 34 -273 20z m236 -208 c25 -12 61 -33 80 -47 73 -56 138 -189 148 -302 l5 -53 -378 0 -379 0 0 38 c0 130 90 295 189 347 94 48 246 56 335 17z" style="fill: rgb(32, 32, 32);"/>
    <path d="M7048 3234 c-15 -8 -32 -24 -38 -35 -16 -28 -14 -1263 2 -1293 30 -60 122 -77 175 -32 l28 24 5 454 5 453 29 63 c104 226 425 246 553 34 48 -81 53 -136 53 -576 0 -423 2 -440 49 -466 29 -15 103 -12 127 5 44 30 45 47 42 536 -3 443 -5 467 -25 520 -32 86 -51 118 -102 172 -81 87 -175 132 -301 143 -140 13 -269 -29 -369 -122 -32 -29 -61 -51 -65 -47 -3 3 -6 29 -6 57 0 58 -17 89 -60 111 -36 19 -67 18 -102 -1z" style="fill: rgb(32, 32, 32);"/>
    <path d="M8778 3240 c-124 -21 -226 -78 -319 -176 -133 -141 -200 -349 -186 -572 22 -326 183 -548 450 -619 100 -27 261 -22 372 11 117 35 215 88 282 153 48 47 53 55 53 95 0 31 -6 51 -20 66 -35 37 -71 29 -175 -42 -145 -100 -286 -133 -431 -103 -134 29 -214 88 -270 202 -26 53 -38 91 -41 139 l-6 65 454 3 c333 2 460 6 475 15 36 21 48 65 41 156 -31 402 -327 666 -679 607z m174 -191 c132 -27 234 -133 274 -284 8 -27 14 -69 14 -92 l0 -43 -375 0 -375 0 0 38 c0 83 44 200 102 275 72 91 220 135 360 106z" style="fill: rgb(32, 32, 32);"/>
    <path d="M9715 3241 c-11 -5 -29 -19 -40 -31 -19 -22 -20 -38 -23 -646 -3 -695 -5 -671 64 -700 48 -20 98 -9 129 28 l25 30 0 367 c0 462 9 516 102 617 50 54 110 87 204 110 51 13 78 26 103 51 31 31 33 38 28 79 -18 164 -253 121 -378 -70 -24 -36 -47 -66 -51 -66 -4 0 -8 33 -8 74 0 92 -10 120 -52 146 -34 21 -69 24 -103 11z" style="fill: rgb(32, 32, 32);"/>
    <path d="M10868 3240 c-205 -35 -375 -185 -449 -397 -68 -194 -65 -416 8 -605 80 -205 235 -339 436 -375 176 -31 320 19 416 144 18 24 37 43 42 43 24 0 1 -236 -31 -323 -28 -75 -103 -157 -172 -188 -47 -21 -67 -24 -173 -23 -139 0 -162 7 -306 89 -125 72 -182 74 -217 8 -21 -38 -14 -80 18 -117 90 -102 298 -176 494 -176 239 0 434 111 529 301 81 162 89 257 85 986 l-3 573 -28 27 c-23 24 -36 28 -83 28 -49 0 -59 -4 -80 -28 -18 -21 -24 -40 -24 -76 0 -26 -2 -50 -6 -53 -3 -3 -27 16 -55 43 -104 102 -248 144 -401 119z m192 -196 c138 -41 227 -154 265 -332 46 -224 -11 -474 -135 -586 -65 -58 -132 -81 -232 -80 -172 2 -290 110 -345 314 -24 90 -24 291 0 380 48 175 127 269 258 304 72 19 124 19 189 0z" style="fill: rgb(32, 32, 32);"/>
    <path d="M11775 3241 c-36 -16 -58 -49 -57 -88 0 -23 82 -277 203 -628 111 -324 202 -597 201 -605 0 -8 -35 -105 -76 -216 -97 -262 -100 -274 -82 -318 17 -40 42 -56 88 -56 37 0 72 20 88 50 6 11 145 405 310 875 191 546 300 870 300 894 0 76 -72 121 -138 87 -17 -9 -36 -24 -41 -34 -5 -9 -68 -199 -141 -422 -72 -223 -143 -440 -157 -483 -14 -43 -29 -75 -33 -70 -4 4 -78 221 -165 482 -118 355 -164 481 -184 503 -28 31 -81 44 -116 29z" style="fill: rgb(32, 32, 32);"/>
    <path d="M785 2968 c-120 -16 -228 -98 -283 -216 -25 -52 -27 -68 -27 -177 0 -109 2 -125 27 -177 55 -117 150 -187 287 -209 179 -30 331 45 404 199 30 64 32 73 32 187 0 116 -1 123 -33 187 -76 156 -223 230 -407 206z" style="fill: rgb(32, 32, 32);"/>
    <path d="M4310 2960 c-120 -26 -227 -117 -271 -232 -20 -52 -24 -81 -24 -168 0 -97 2 -110 32 -172 57 -120 154 -191 284 -206 237 -27 409 101 442 331 25 173 -66 347 -216 418 -70 32 -172 44 -247 29z" style="fill: rgb(32, 32, 32);"/>
    <path d="M1962 2283 c-28 -108 -94 -247 -160 -333 -211 -277 -545 -431 -943 -432 -71 0 -129 -3 -129 -7 0 -3 88 -340 197 -748 155 -586 200 -743 212 -743 19 0 4030 1076 4036 1082 3 2 -30 133 -72 289 l-76 285 -73 -37 c-162 -81 -340 -120 -554 -120 -308 0 -544 72 -762 233 -165 122 -305 328 -354 523 -10 39 -20 73 -23 77 -4 4 -76 -175 -161 -398 l-155 -404 -323 3 -323 2 -153 395 c-84 217 -155 401 -157 408 -2 7 -14 -27 -27 -75z" style="fill: rgb(32, 32, 32);"/>
  </g>
</svg>